<?xml version="1.0" encoding="utf-8"?>
<!-- Generator: Adobe Illustrator 27.0.0, SVG Export Plug-In . SVG Version: 6.00 Build 0)  -->
<svg role="img" width="55" height="55" version="1.1" id="Calque_1" xmlns="http://www.w3.org/2000/svg" xmlns:xlink="http://www.w3.org/1999/xlink" x="0px" y="0px"
	 viewBox="0 0 75 75" style="enable-background:new 0 0 75 75;" xml:space="preserve">
<title>Canary Monitoring</title>
<style type="text/css">
	.st0{fill:#EEE300;stroke:#00B4EC;stroke-width:5.0046;stroke-miterlimit:10;}
	.st1{fill:#4B3C36;}
	.st2{fill:#F4F1E8;}
	.st3{fill:#FF8500;}
	.st4{fill:#4C3E3A;}
	.st5{fill:#B74441;}
	.st6{fill:#E8723E;}
	.st7{fill:#E96A3D;}
	.st8{fill:#F4F1D1;}
	.st9{fill:#534944;}
</style>
<circle class="st0" cx="37.55" cy="37.92" r="33.92"/>
<g id="byLYZu_00000093135064589396986600000000289137685159339166_">
	<g>
		<g>
			<path class="st1" d="M59.45,32.99c-0.9,3.25-2.69,6.09-4.21,9.05c-0.03,0.25-0.13,0.52-0.06,0.74c0.38,1.28,0.21,2.48-0.35,3.67
				c-0.74,1.59-1.98,2.71-3.33,3.75c-1.08,0.84-2.18,1.66-3.27,2.49c0,0,0,0.01,0,0.01c-0.03,0-0.07,0-0.1,0.01
				c-0.11,0.1-0.23,0.19-0.34,0.29c-0.11,0.07-0.22,0.14-0.33,0.22c-0.03,0-0.06,0.01-0.09,0.02c-0.66,0.47-1.32,0.94-1.98,1.41
				c-1.65,1.1-3.3,2.2-4.94,3.29c-0.62,0.38-1.24,0.77-1.86,1.15c-0.47,0.28-0.95,0.56-1.42,0.84c-0.2,0.07-0.4,0.14-0.6,0.23
				c-2.11,0.97-4.3,1.47-6.63,1.22c-0.49-0.05-0.98-0.18-1.46-0.27c-0.17-0.09-0.34-0.19-0.52-0.27c-0.87-0.4-1.66-0.9-2.23-1.69
				c-1.12-1.54-1.46-3.27-1.32-5.15c0.17-2.2,0.98-4.13,2.32-5.86c0.21-0.27,0.39-0.57,0.61-0.88c-0.13-0.05-0.19-0.09-0.26-0.1
				c-1.59-0.27-3.19-0.54-4.78-0.82c-1.88-0.33-3.69-0.9-5.45-1.64c-1.88-0.78-3.63-1.8-5.24-3.04c-0.1-0.12-0.2-0.24-0.31-0.35
				c-1.07-1.02-1.95-2.18-2.26-3.66c-0.14-0.67-0.15-1.37-0.22-2.06c0,0,0-0.01,0-0.01c0.08-0.17,0.17-0.34,0.24-0.51
				c0.3-0.75,0.64-1.46,1.38-1.91c0.85-0.52,1.78-0.63,2.75-0.69c1.43-0.09,2.82,0.07,4.16,0.5c1.54,0.49,3.02,1.15,4.51,1.76
				c0.45,0.19,0.87,0.47,1.3,0.7c-0.38,0-0.66,0.09-0.41,0.71c-0.5-0.23-0.89-0.41-1.32-0.61c-0.02,0.1-0.07,0.29-0.12,0.49
				c-0.44-0.19-0.88-0.38-1.31-0.58c-2.24-1.02-4.56-1.72-7.05-1.75c-2.24-0.03-3.31,1.31-2.71,3.45c0.28,1,0.83,1.85,1.51,2.61
				c2.11,2.38,4.91,3.61,7.86,4.5c2.71,0.82,5.49,1.35,8.31,1.69c3.81,0.46,7.63,0.64,11.46,0.44c3.21-0.17,6.4-0.47,9.27-2.12
				c0.1,0.26,0.21,0.52,0.31,0.77c-0.57,0.67-1.01,1.51-2.07,1.44c0.24,0.1,0.47,0.2,0.71,0.31c-0.63,0.69-1.26,1.38-1.89,2.08
				c-0.33,0.35-0.67,0.7-1,1.05c-0.07,0.07-0.14,0.15-0.21,0.22c-0.08,0.07-0.17,0.13-0.24,0.21c-1.74,1.78-3.48,3.56-5.52,5.01
				C36.4,57,33.91,58.24,31,58.43c-0.39-0.02-0.79-0.02-1.17-0.07c-1.09-0.14-2.02-0.57-2.6-1.56c-0.56-0.95-0.65-1.99-0.51-3.05
				c0.31-2.42,1.38-4.47,3.07-6.2c0.11-0.12,0.21-0.25,0.35-0.41c-0.55-0.22-0.97-0.17-1.32,0.24c-0.44,0.51-0.93,0.98-1.33,1.53
				c-1.48,2.05-2.3,4.29-1.83,6.87c0.42,2.33,2.32,4.16,4.43,4.29c0.41,0.04,0.81,0.1,1.22,0.11c1.85,0.01,3.58-0.51,5.24-1.28
				c2.33-1.08,4.43-2.55,6.51-4.04c0.98-0.7,1.96-1.41,2.94-2.11c0,0,0,0,0,0c0.3-0.2,0.6-0.41,0.9-0.61
				c1.78-1.3,3.59-2.56,5.33-3.91c1.09-0.84,1.63-2.04,1.83-3.4c0.22-1.49-0.38-2.71-1.7-3.44c-0.97-0.54-2.02-0.79-3.12-0.84
				c-1.73-0.08-3.4,0.24-5.06,0.69c-0.44,0.12-0.68,0.04-0.74-0.44c-0.08-0.6-0.17-1.2-0.28-1.79c-0.36-1.86-1.54-2.61-3.38-2.21
				c-1.49,0.32-2.9,0.86-4.25,1.54c-1.53,0.76-3.1,1.44-4.85,1.19c-1.12-0.16-2.25-0.4-3.32-0.77c-1.27-0.44-2.48-1.06-3.72-1.6
				c0.01-0.38,0.03-0.75,0.04-1.13c0.06-0.02,0.12-0.04,0.18-0.05c-0.23-0.11-0.47-0.22-0.7-0.32l0,0c0-0.07,0.01-0.14,0.01-0.22
				c0.54,0.26,1.09,0.52,1.62,0.79c1.68,0.84,3.42,1.57,5.26,1.97c0.44,0.1,0.93,0.13,1.37,0.05c0.15-0.03,0.23-0.49,0.34-0.76
				c0.01-0.02,0.02-0.03,0.03-0.05c0.44-1.09,0.85-2.19,1.32-3.26c0.71-1.65,1.46-3.28,2.2-4.91c0.25-0.55,0.53-1.08,0.79-1.62
				c0.51-0.76,0.98-1.55,1.54-2.27c1.03-1.35,2.08-2.69,3.18-3.97c0.5-0.58,1.16-1.03,1.74-1.54c0.34-0.2,0.67-0.39,1.01-0.59
				c1-0.29,2-0.58,3.04-0.89c-0.23-0.29-0.54-0.55-0.65-0.88c-0.11-0.31-0.1-0.71,0-1.03c0.11-0.36,0.49-0.48,0.85-0.34
				c0.56,0.22,1.12,0.44,1.63,0.75c0.54,0.33,1.02,0.77,1.57,1.2c0.06-0.18,0.13-0.29,0.14-0.4c0.11-1.14,0.62-2.12,1.32-2.98
				c0.51-0.63,1.03-1.32,2.02-1.08c0,0,0.02,0.01,0.02,0.01c0,0.42,0.02,0.84-0.01,1.26c-0.06,0.8-0.15,1.59-0.21,2.39
				c-0.01,0.13,0.08,0.34,0.19,0.39c0.09,0.04,0.28-0.07,0.4-0.16c0.29-0.23,0.55-0.5,0.85-0.72c0.65-0.46,1.2-0.22,1.33,0.56
				c0,0.07,0,0.14,0,0.22c0.08,0.65,0.15,1.3,0.23,1.95c0.33,0.56,0.54,1.25,1,1.64c1.73,1.48,2.49,3.4,2.61,5.59
				c0.08,1.38,0,2.77-0.01,4.15c-0.01,0.1-0.02,0.19-0.03,0.29c0,0.04,0,0.08-0.01,0.12c-0.01,0.28-0.03,0.57-0.04,0.85
				c-0.01,0.02-0.01,0.05-0.01,0.08c-0.04,0.04-0.08,0.07-0.12,0.11C59.58,32.54,59.51,32.77,59.45,32.99z M48.63,18.71l-0.01,0.03
				C48.62,18.74,48.64,18.72,48.63,18.71c-0.01,0.06-0.05,0.11-0.05,0.15c0.11,0.96,0.01,1.07-0.98,0.95
				c-1.14-0.14-2.24-0.02-3.3,0.44c-1.58,0.69-2.81,1.81-3.87,3.13c-3.34,4.14-5.56,8.88-7.37,13.84c-0.15,0.42-0.27,0.87-0.45,1.46
				c0.81-0.33,1.47-0.57,2.11-0.87c1.73-0.8,3.42-1.73,5.35-1.93c2.5-0.26,3.57,0.61,3.9,2.73c0.09,0.57,0.19,1.15,0.28,1.67
				c1.38-0.2,2.69-0.48,4.01-0.57c2.19-0.15,4.33-0.03,6.03,1.97c1.19-2.42,2.44-4.72,3.45-7.12c1.12-2.65,1.21-5.48,0.79-8.31
				c-0.23-1.55-0.94-2.85-2.07-3.94c-1.11-1.06-1.86-2.3-1.72-3.92c0-0.04-0.04-0.07-0.16-0.25c-0.28,0.58-0.5,1.07-0.76,1.54
				c-0.11,0.21-0.28,0.45-0.48,0.52c-0.12,0.04-0.39-0.19-0.51-0.35c-0.68-0.88-0.82-1.91-0.77-2.99c0.02-0.39,0.03-0.78,0.05-1.29
				c-0.15,0.24-0.24,0.39-0.33,0.54c-0.53,0.83-0.52,1.8-0.71,2.72c-0.09,0.43-0.22,0.86-0.41,1.26c-0.12,0.24-0.38,0.49-0.68,0.15
				C49.52,19.72,49.07,19.21,48.63,18.71z M34.83,50.69c1.22-1.11,2.42-2.21,3.73-3.4c-0.79,0.01-1.49,0.01-2.19,0.04
				c-0.13,0.01-0.29,0.15-0.38,0.28C35.32,48.52,34.96,49.55,34.83,50.69z M20.81,35.1c0.01-0.07,0.02-0.15,0.03-0.22
				c-0.43-0.05-0.86-0.11-1.28-0.14c-0.02,0-0.06,0.15-0.08,0.2C19.95,34.99,20.38,35.04,20.81,35.1z M22.05,35.3
				c0.02,0.06,0.03,0.12,0.05,0.18c0.11-0.05,0.22-0.09,0.33-0.14c-0.02-0.04-0.03-0.09-0.05-0.13
				C22.27,35.23,22.16,35.26,22.05,35.3z M21.22,35.39c-0.03-0.06-0.05-0.1-0.07-0.15c-0.04,0.03-0.1,0.05-0.1,0.08
				c-0.01,0.04,0.03,0.09,0.04,0.13C21.13,35.44,21.17,35.42,21.22,35.39z"/>
			<path class="st2" d="M48.63,18.71c0.45,0.5,0.89,1.01,1.34,1.51c0.3,0.34,0.56,0.09,0.68-0.15c0.19-0.39,0.33-0.83,0.41-1.26
				c0.19-0.92,0.17-1.89,0.71-2.72c0.09-0.15,0.18-0.3,0.33-0.54c-0.02,0.5-0.03,0.89-0.05,1.29c-0.05,1.08,0.09,2.1,0.77,2.99
				c0.13,0.16,0.39,0.39,0.51,0.35c0.2-0.07,0.36-0.31,0.48-0.52c0.26-0.47,0.48-0.96,0.76-1.54c0.11,0.18,0.16,0.22,0.16,0.25
				c-0.15,1.62,0.61,2.86,1.72,3.92c1.13,1.09,1.85,2.39,2.07,3.94c0.41,2.83,0.33,5.66-0.79,8.31c-1.02,2.4-2.27,4.7-3.45,7.12
				c-1.7-1.99-3.84-2.12-6.03-1.97c-1.32,0.09-2.63,0.37-4.01,0.57c-0.09-0.52-0.19-1.1-0.28-1.67c-0.33-2.12-1.4-2.99-3.9-2.73
				c-1.93,0.2-3.62,1.13-5.35,1.93c-0.64,0.3-1.3,0.54-2.11,0.87c0.18-0.59,0.29-1.03,0.45-1.46c1.81-4.96,4.03-9.7,7.37-13.84
				c1.06-1.32,2.29-2.44,3.87-3.13c1.06-0.46,2.16-0.57,3.3-0.44c0.99,0.12,1.09,0.01,0.98-0.95c-0.01-0.04,0.04-0.09,0.06-0.14
				C48.64,18.72,48.63,18.71,48.63,18.71z M48.13,31.81c0.75-0.22,1.47-0.42,2.17-0.66c0.17-0.06,0.38-0.23,0.43-0.39
				c0.38-1.19,0.79-2.37,1.04-3.59c0.17-0.8,0.2-1.66,0.11-2.48c-0.08-0.78-0.75-1.01-1.44-0.62c-0.93,0.52-1.63,1.27-2.16,2.17
				c-1.3,2.2-2.31,4.53-3.09,6.96c-0.39,1.2-0.74,2.42-0.59,3.72c0.02,0.19,0.06,0.39,0.11,0.57c0.17,0.6,0.48,1.08,1.14,1.21
				c0.63,0.13,1.04-0.28,1.33-0.72c0.69-1.03,1.33-2.1,1.95-3.18c0.11-0.18,0.09-0.51,0-0.72C48.83,33.35,48.48,32.61,48.13,31.81z
				 M39.65,29.2c0.46-0.07,0.9-0.18,1.34-0.19c0.79-0.01,1.34-0.27,1.53-1.1c0.07-0.3,0.27-0.57,0.4-0.86
				c0.43-1.03,0.92-2.05,1.26-3.11c0.29-0.91-0.41-1.59-1.33-1.3c-0.5,0.16-1.02,0.46-1.39,0.84c-2.91,3.07-4.72,6.73-5.65,10.84
				c-0.08,0.37-0.08,0.79-0.02,1.16c0.1,0.61,0.58,0.88,1.13,0.63c0.43-0.19,0.86-0.45,1.21-0.76c1.01-0.88,1.63-2.06,2.26-3.22
				c0.07-0.13,0.04-0.34-0.01-0.5C40.16,30.83,39.91,30.04,39.65,29.2z"/>
			<path class="st3" d="M52.35,41.38c-0.97-0.54-2.02-0.79-3.12-0.84c-1.73-0.08-3.4,0.24-5.06,0.69c-0.44,0.12-0.68,0.04-0.74-0.44
				c-0.08-0.6-0.17-1.2-0.28-1.79c-0.36-1.86-1.54-2.61-3.38-2.21c-1.49,0.32-2.9,0.86-4.25,1.54c-1.53,0.76-3.1,1.44-4.85,1.19
				c-1.12-0.16-2.25-0.4-3.32-0.77c-1.27-0.44-2.48-1.06-3.72-1.6c-0.49-0.24-0.98-0.47-1.47-0.71c-0.28-0.14-0.56-0.29-0.84-0.43
				c0,0-0.01,0-0.01,0c-0.44-0.19-0.88-0.38-1.31-0.58c-2.24-1.02-4.56-1.72-7.05-1.75c-2.24-0.03-3.31,1.31-2.71,3.45
				c0.28,1,0.83,1.85,1.51,2.61c2.11,2.38,4.91,3.61,7.86,4.5c2.71,0.82,5.49,1.35,8.31,1.69c3.81,0.46,7.63,0.64,11.46,0.44
				c3.21-0.17,6.4-0.47,9.27-2.12c0.18-0.16,0.36-0.32,0.63-0.56c-0.43-0.21-0.81-0.35-1.15-0.56c-0.18-0.11-0.29-0.33-0.44-0.5
				c0.24-0.15,0.51-0.47,0.7-0.43c1.24,0.31,2.47,0.7,3.4,1.67c0.16,0.17,0.28,0.37,0.39,0.57c0.18,0.33,0.05,0.59-0.24,0.77
				c-0.3,0.18-0.44-0.05-0.59-0.26c-0.1-0.14-0.23-0.27-0.35-0.4c-0.25,0.24-0.58,0.45-0.75,0.74c-0.24,0.43-0.49,0.54-0.92,0.31
				c-0.11-0.06-0.27-0.04-0.41-0.05c-0.45,0.41-0.89,0.81-1.34,1.22c-0.63,0.69-1.26,1.38-1.89,2.08c-0.33,0.35-0.67,0.7-1,1.05
				c0.04,0.08,0.08,0.17,0.12,0.25c-0.11-0.01-0.22-0.02-0.33-0.03c-0.08,0.07-0.17,0.13-0.24,0.21c-1.74,1.78-3.48,3.56-5.52,5.01
				C36.4,57,33.91,58.24,31,58.43c-0.06,0.01-0.12,0.03-0.18,0.04c0.06-0.02,0.12-0.03,0.18-0.04c-0.39-0.02-0.79-0.02-1.17-0.07
				c-1.09-0.14-2.02-0.57-2.6-1.56c-0.56-0.95-0.65-1.99-0.51-3.05c0.31-2.42,1.38-4.47,3.07-6.2c0.11-0.12,0.21-0.25,0.35-0.41
				c-0.55-0.22-0.97-0.17-1.32,0.24c-0.44,0.51-0.93,0.98-1.33,1.53c-1.48,2.05-2.3,4.29-1.83,6.87c0.42,2.33,2.32,4.16,4.43,4.29
				c0,0,0,0,0,0c0.41,0.04,0.81,0.1,1.22,0.11c1.85,0.01,3.58-0.51,5.24-1.28c2.33-1.08,4.43-2.55,6.51-4.04
				c0.98-0.7,1.96-1.41,2.94-2.11c0,0,0,0,0,0c0.01-0.24,0.02-0.48,0.02-0.64c0.32,0.01,0.6,0.02,0.88,0.03
				c1.78-1.3,3.59-2.56,5.33-3.91c1.09-0.84,1.63-2.04,1.83-3.4C54.26,43.33,53.66,42.11,52.35,41.38z M38,39.04
				c-0.22,0.23-0.43,0.47-0.69,0.65c-0.13,0.09-0.35,0.07-0.53,0.1c-0.01-0.17-0.08-0.38,0-0.49c0.24-0.32,0.52-0.62,0.82-0.89
				c0.08-0.07,0.3-0.05,0.43,0c0.09,0.03,0.12,0.2,0.18,0.31C38.14,38.84,38.09,38.95,38,39.04z M40,39.04
				c-0.15,0.43-0.32,0.85-0.55,1.24c-0.07,0.12-0.36,0.1-0.55,0.14c0-0.19-0.05-0.39,0-0.56c0.09-0.3,0.23-0.59,0.39-0.86
				c0.08-0.14,0.25-0.22,0.45-0.39C39.85,38.79,40.03,38.95,40,39.04z M29.35,59.3c0.03-0.02,0.06-0.05,0.08-0.04
				c0.02,0,0.04,0.05,0.06,0.07c-0.03,0.02-0.06,0.05-0.08,0.04C29.38,59.37,29.37,59.33,29.35,59.3z M31.2,59.33
				c-0.49,0.15-0.73-0.17-1.04-0.39c0.01-0.07,0.02-0.13,0.03-0.2c0.73,0.12,1.46,0.25,2.19,0.37c0,0.05,0,0.09,0.01,0.14
				C31.99,59.28,31.57,59.22,31.2,59.33z M44.01,51.42c-0.08,0.28-0.18,0.56-0.31,0.97c-0.06-0.44-0.11-0.69-0.12-0.95
				c0-0.09,0.06-0.2,0.14-0.27c0.05-0.05,0.21-0.06,0.23-0.03C44.01,51.22,44.04,51.34,44.01,51.42z M45.18,49.75
				c0-0.02,0.14-0.04,0.22-0.07c0.01,0.12,0.03,0.24,0.04,0.36l0,0c0.08,0.07,0.15,0.13,0.23,0.2c-0.01,0.04-0.01,0.07-0.02,0.11
				c-0.14-0.02-0.38,0.01-0.41-0.05C45.16,50.14,45.18,49.93,45.18,49.75z M44.82,51.43c-0.11-0.23-0.2-0.41-0.3-0.62
				C45.02,50.85,45.03,50.87,44.82,51.43z"/>
			<path class="st4" d="M48.64,44.26c0.18-0.16,0.36-0.32,0.63-0.56c-0.43-0.21-0.81-0.35-1.15-0.56c-0.18-0.11-0.29-0.33-0.44-0.5
				c0.24-0.15,0.51-0.47,0.7-0.43c1.24,0.31,2.47,0.7,3.4,1.67c0.16,0.17,0.28,0.37,0.39,0.57c0.18,0.33,0.05,0.59-0.24,0.77
				c-0.3,0.18-0.44-0.05-0.59-0.26c-0.1-0.14-0.23-0.27-0.35-0.4c-0.18-0.06-0.42-0.21-0.52-0.15c-0.54,0.35-1.04,0.76-1.56,1.15
				c-0.45,0.41-0.89,0.81-1.34,1.22c-0.24-0.1-0.47-0.2-0.71-0.31c1.07,0.07,1.51-0.77,2.07-1.44
				C48.84,44.77,48.74,44.52,48.64,44.26z"/>
			<path class="st5" d="M34.83,50.69c0.13-1.14,0.49-2.17,1.16-3.08c0.09-0.12,0.24-0.27,0.38-0.28c0.7-0.04,1.4-0.03,2.19-0.04
				C37.25,48.48,36.05,49.58,34.83,50.69z"/>
			<path class="st4" d="M23.63,37.15c-0.49-0.24-0.98-0.47-1.47-0.71c-0.08-0.52-0.5-0.41-0.84-0.43c0,0-0.01,0-0.01,0
				c0.05-0.19,0.09-0.39,0.12-0.49c0.43,0.2,0.83,0.38,1.32,0.61c-0.25-0.62,0.03-0.71,0.41-0.71c0,0,0,0,0,0
				c0,0.07-0.01,0.14-0.01,0.22c-0.05,0.03-0.09,0.05-0.14,0.08c0.02,0.02,0.04,0.04,0.05,0.06c0.03-0.04,0.06-0.09,0.09-0.13
				c0.23,0.11,0.47,0.22,0.7,0.32c-0.06,0.02-0.12,0.04-0.18,0.05C23.65,36.4,23.64,36.77,23.63,37.15z"/>
			<path class="st4" d="M20.81,35.1c-0.43-0.05-0.86-0.11-1.33-0.17c0.02-0.04,0.05-0.2,0.08-0.2c0.43,0.04,0.86,0.09,1.28,0.14
				C20.83,34.95,20.82,35.02,20.81,35.1z"/>
			<path class="st6" d="M45.99,52.75c0.01-0.24,0.02-0.48,0.02-0.64c0.32,0.01,0.6,0.02,0.88,0.03
				C46.59,52.34,46.29,52.54,45.99,52.75z"/>
			<path class="st4" d="M22.05,35.3c0.11-0.03,0.22-0.06,0.33-0.09c0.02,0.04,0.03,0.09,0.05,0.13c-0.11,0.05-0.22,0.09-0.33,0.14
				C22.08,35.41,22.06,35.36,22.05,35.3z"/>
			<path class="st7" d="M44.68,49.9c0.04,0.08,0.08,0.17,0.12,0.25c-0.11-0.01-0.22-0.02-0.33-0.03
				C44.55,50.05,44.61,49.98,44.68,49.9z"/>
			<path class="st4" d="M21.22,35.39c-0.05,0.03-0.09,0.05-0.13,0.07c-0.02-0.04-0.05-0.09-0.04-0.13c0.01-0.03,0.07-0.05,0.1-0.08
				C21.17,35.29,21.19,35.33,21.22,35.39z"/>
			<polygon class="st8" points="48.64,18.72 48.62,18.74 48.63,18.71 			"/>
			<path class="st1" d="M39.74,38.61c0.12,0.18,0.3,0.34,0.27,0.43c-0.15,0.43-0.32,0.85-0.55,1.24c-0.07,0.12-0.36,0.1-0.55,0.14
				c0-0.19-0.05-0.39,0-0.56c0.09-0.3,0.23-0.59,0.39-0.86C39.37,38.86,39.53,38.78,39.74,38.61z"/>
			<path class="st1" d="M38.23,38.72c-0.08,0.12-0.14,0.23-0.22,0.32c-0.22,0.23-0.43,0.47-0.69,0.65c-0.13,0.09-0.35,0.07-0.53,0.1
				c-0.01-0.17-0.08-0.38,0-0.49c0.24-0.32,0.52-0.62,0.82-0.89c0.08-0.07,0.3-0.05,0.43,0C38.13,38.44,38.16,38.6,38.23,38.72z"/>
			<path class="st6" d="M48.91,45.56c0.52-0.39,1.02-0.8,1.56-1.15c0.1-0.06,0.34,0.09,0.52,0.15c-0.25,0.24-0.58,0.45-0.75,0.74
				c-0.24,0.43-0.49,0.54-0.92,0.31C49.21,45.55,49.05,45.57,48.91,45.56z"/>
			<path class="st1" d="M21.32,36.01c0.34,0.02,0.75-0.09,0.84,0.43C21.87,36.3,21.6,36.15,21.32,36.01z"/>
			<path class="st4" d="M48.13,31.81c0.35,0.8,0.71,1.53,1.01,2.29c0.08,0.21,0.1,0.54,0,0.72c-0.62,1.08-1.26,2.15-1.95,3.18
				c-0.29,0.44-0.7,0.84-1.33,0.72c-0.66-0.13-0.97-0.61-1.14-1.21c-0.05-0.19-0.09-0.38-0.11-0.57c-0.15-1.29,0.2-2.52,0.59-3.72
				c0.78-2.43,1.79-4.76,3.09-6.96c0.53-0.9,1.24-1.65,2.16-2.17c0.69-0.39,1.36-0.16,1.44,0.62c0.09,0.82,0.06,1.68-0.11,2.48
				c-0.26,1.21-0.67,2.4-1.04,3.59c-0.05,0.16-0.26,0.33-0.43,0.39C49.59,31.39,48.88,31.59,48.13,31.81z M47.04,32.92
				c0.06-0.07,0.13-0.13,0.19-0.2c-0.14-0.28-0.26-0.58-0.44-0.83c-0.04-0.06-0.39-0.01-0.44,0.08c-0.09,0.18-0.18,0.53-0.09,0.61
				C46.47,32.75,46.78,32.81,47.04,32.92z"/>
			<path class="st4" d="M39.65,29.2c0.26,0.84,0.51,1.63,0.74,2.44c0.05,0.16,0.08,0.37,0.01,0.5c-0.62,1.16-1.25,2.33-2.26,3.22
				c-0.35,0.31-0.78,0.57-1.21,0.76c-0.55,0.25-1.02-0.02-1.13-0.63c-0.06-0.38-0.07-0.79,0.02-1.16c0.93-4.11,2.74-7.77,5.65-10.84
				c0.36-0.38,0.88-0.68,1.39-0.84c0.91-0.29,1.62,0.39,1.33,1.3c-0.34,1.06-0.83,2.08-1.26,3.11c-0.12,0.29-0.33,0.56-0.4,0.86
				c-0.2,0.83-0.75,1.09-1.53,1.1C40.55,29.02,40.12,29.13,39.65,29.2z"/>
			<path class="st7" d="M30.19,58.75c0.73,0.12,1.46,0.25,2.19,0.37c0,0.05,0,0.09,0.01,0.14c-0.4,0.02-0.82-0.04-1.19,0.07
				c-0.49,0.15-0.73-0.17-1.04-0.39C30.17,58.88,30.18,58.82,30.19,58.75z"/>
			<path class="st7" d="M43.7,52.39c-0.06-0.44-0.11-0.69-0.12-0.95c0-0.09,0.06-0.2,0.14-0.27c0.05-0.05,0.21-0.06,0.23-0.03
				c0.05,0.07,0.08,0.19,0.06,0.28C43.94,51.71,43.84,51.98,43.7,52.39z"/>
			<path class="st7" d="M45.44,50.04c0.08,0.07,0.15,0.13,0.23,0.2c-0.01,0.04-0.01,0.07-0.02,0.11c-0.14-0.02-0.38,0.01-0.41-0.05
				c-0.07-0.16-0.06-0.36-0.06-0.55c0-0.02,0.14-0.04,0.22-0.07C45.41,49.8,45.43,49.92,45.44,50.04c0,0-0.02-0.02-0.02-0.02
				S45.44,50.04,45.44,50.04z"/>
			<path class="st7" d="M44.52,50.81c0.5,0.04,0.51,0.06,0.3,0.62C44.7,51.2,44.62,51.02,44.52,50.81z"/>
			<path class="st7" d="M29.49,59.33c-0.03,0.02-0.06,0.05-0.08,0.04c-0.02,0-0.04-0.05-0.06-0.07c0.03-0.02,0.06-0.05,0.08-0.04
				C29.46,59.27,29.47,59.31,29.49,59.33z"/>
			<path class="st1" d="M23.15,35.64c-0.03,0.04-0.06,0.09-0.09,0.13c-0.02-0.02-0.04-0.04-0.05-0.06
				C23.05,35.69,23.1,35.67,23.15,35.64C23.15,35.64,23.15,35.64,23.15,35.64z"/>
			<path class="st9" d="M47.04,32.92c-0.27-0.11-0.57-0.17-0.78-0.35c-0.09-0.08,0-0.43,0.09-0.61c0.05-0.09,0.4-0.13,0.44-0.08
				c0.18,0.25,0.3,0.55,0.44,0.83C47.17,32.79,47.11,32.85,47.04,32.92z"/>
			<polygon class="st6" points="45.44,50.04 45.42,50.02 45.44,50.04 			"/>
		</g>
	</g>
</g>
</svg>
